<svg xmlns="http://www.w3.org/2000/svg" xmlns:xlink="http://www.w3.org/1999/xlink" width="40" height="40" viewBox="0 0 40 40">
  <defs>
    <clipPath id="clip-path">
      <rect id="사각형_347489" data-name="사각형 347489" width="31.136" height="33.598" fill="none"/>
    </clipPath>
    <clipPath id="clip-path-2">
      <rect id="사각형_347488" data-name="사각형 347488" width="31.136" height="33.598" transform="translate(0 0)" fill="none"/>
    </clipPath>
    <clipPath id="clip-path-3">
      <rect id="사각형_347486" data-name="사각형 347486" width="17.939" height="24.277" transform="translate(0.512 8.821)" fill="none"/>
    </clipPath>
  </defs>
  <g id="icon_category_01_40" transform="translate(-148.445 -557.445)">
    <rect id="사각형_1002" data-name="사각형 1002" width="40" height="40" transform="translate(148.445 557.445)" fill="none" opacity="0.21"/>
    <g id="그룹_475345" data-name="그룹 475345" transform="translate(152.877 560.445)">
      <g id="그룹_475344" data-name="그룹 475344" clip-path="url(#clip-path)">
        <g id="그룹_475343" data-name="그룹 475343">
          <g id="그룹_475342" data-name="그룹 475342" clip-path="url(#clip-path-2)">
            <path id="패스_40311" data-name="패스 40311" d="M23.963,31.243a1.922,1.922,0,0,1-2.339,1.37l-11.492-3a1.925,1.925,0,0,1-1.371-2.341L15.372,1.932a1.923,1.923,0,0,1,2.34-1.37L29.2,3.568a1.925,1.925,0,0,1,1.371,2.34Z" fill="#fff"/>
            <path id="패스_40312" data-name="패스 40312" d="M22.106,33.175A2.4,2.4,0,0,1,21.5,33.1l-11.492-3a2.423,2.423,0,0,1-1.728-2.951L14.888,1.806A2.418,2.418,0,0,1,17.838.078L29.33,3.084a2.422,2.422,0,0,1,1.728,2.95L24.447,31.369A2.418,2.418,0,0,1,22.106,33.175ZM17.23,1a1.42,1.42,0,0,0-1.374,1.059L9.245,27.393a1.421,1.421,0,0,0,1.014,1.731l11.492,3a1.417,1.417,0,0,0,1.729-1.012L30.09,5.782a1.42,1.42,0,0,0-1.014-1.73L17.585,1.046A1.408,1.408,0,0,0,17.23,1Z" fill="#111"/>
            <path id="패스_40313" data-name="패스 40313" d="M22.106,33.175A2.4,2.4,0,0,1,21.5,33.1l-11.492-3a2.423,2.423,0,0,1-1.728-2.951L14.888,1.806A2.418,2.418,0,0,1,17.838.078L29.33,3.084a2.422,2.422,0,0,1,1.728,2.95L24.447,31.369A2.418,2.418,0,0,1,22.106,33.175ZM17.23,1a1.42,1.42,0,0,0-1.374,1.059L9.245,27.393a1.421,1.421,0,0,0,1.014,1.731l11.492,3a1.417,1.417,0,0,0,1.729-1.012L30.09,5.782a1.42,1.42,0,0,0-1.014-1.73L17.585,1.046A1.408,1.408,0,0,0,17.23,1Z" fill="#111"/>
            <path id="패스_40314" data-name="패스 40314" d="M10.531,21.026a.406.406,0,0,1-.19-.04.585.585,0,0,1-.17-.1.543.543,0,0,1-.14-.36.48.48,0,0,1,.31-.46.5.5,0,0,1,.69.46.554.554,0,0,1-.15.36.5.5,0,0,1-.35.14" fill="#111"/>
            <path id="패스_40315" data-name="패스 40315" d="M23.7,24.5a.513.513,0,0,1-.37-.49.615.615,0,0,1,.01-.13.5.5,0,0,1,.61-.35.5.5,0,0,1,.38.48.585.585,0,0,1-.02.13.5.5,0,0,1-.48.37.57.57,0,0,1-.13-.01M21.8,24a.5.5,0,0,1-.37-.49.254.254,0,0,1,.02-.12.493.493,0,0,1,.61-.36.485.485,0,0,1,.35.61.49.49,0,0,1-.48.37A.615.615,0,0,1,21.8,24m-1.9-.5a.5.5,0,0,1-.37-.48.57.57,0,0,1,.01-.13.5.5,0,0,1,.61-.36.51.51,0,0,1,.38.49.527.527,0,0,1-.5.5.585.585,0,0,1-.13-.02m-1.9-.49a.513.513,0,0,1-.37-.49.615.615,0,0,1,.01-.13.51.51,0,0,1,.62-.35.5.5,0,0,1,.37.48.585.585,0,0,1-.02.13.5.5,0,0,1-.48.37.57.57,0,0,1-.13-.01m-1.9-.5a.513.513,0,0,1-.37-.49.487.487,0,0,1,.01-.12.5.5,0,1,1,.49.62.57.57,0,0,1-.13-.01m-1.9-.5a.5.5,0,0,1-.37-.49.487.487,0,0,1,.01-.12.5.5,0,1,1,.49.63.585.585,0,0,1-.13-.02m-1.9-.5a.5.5,0,0,1-.36-.61.5.5,0,0,1,.61-.35.5.5,0,0,1-.12.98.585.585,0,0,1-.13-.02" fill="#111"/>
            <path id="패스_40316" data-name="패스 40316" d="M25.731,25.006a.406.406,0,0,1-.19-.04.619.619,0,0,1-.17-.11.5.5,0,0,1-.14-.35.406.406,0,0,1,.04-.19.435.435,0,0,1,.1-.16.452.452,0,0,1,.17-.11.5.5,0,0,1,.54.11.355.355,0,0,1,.11.16.406.406,0,0,1,.04.19.469.469,0,0,1-.15.35.509.509,0,0,1-.35.15" fill="#111"/>
            <path id="선_640" data-name="선 640" d="M0,4.588a.5.5,0,0,1-.127-.016.5.5,0,0,1-.357-.61L.587-.127A.5.5,0,0,1,1.2-.484a.5.5,0,0,1,.357.61L.484,4.215A.5.5,0,0,1,0,4.588Z" transform="translate(24.319 5.476)" fill="#111"/>
            <path id="패스_40317" data-name="패스 40317" d="M25.1,11.4a.5.5,0,0,1-.432-.248l-.526-.9-.9.526a.5.5,0,1,1-.505-.863L24.5,8.88l1.032,1.763a.5.5,0,0,1-.431.753Z" fill="#111"/>
            <path id="패스_40318" data-name="패스 40318" d="M27.064,9.877a.5.5,0,0,1-.354-.147L24.783,7.794l-2.626.744a.5.5,0,0,1-.273-.962l3.192-.9,2.342,2.353a.5.5,0,0,1-.354.853Z" fill="#111"/>
            <path id="사각형_347485" data-name="사각형 347485" d="M1.918,0H16.033a1.918,1.918,0,0,1,1.918,1.918V22.371a1.918,1.918,0,0,1-1.918,1.918H1.917A1.917,1.917,0,0,1,0,22.372V1.918A1.918,1.918,0,0,1,1.918,0Z" transform="translate(0.5 8.81)" fill="#4589ff"/>
            <g id="그룹_475341" data-name="그룹 475341" opacity="0.25" style="mix-blend-mode: multiply;isolation: isolate">
              <g id="그룹_475340" data-name="그룹 475340">
                <g id="그룹_475339" data-name="그룹 475339" clip-path="url(#clip-path-3)">
                  <path id="패스_40319" data-name="패스 40319" d="M16.649,8.821c0,.039.012.076.012.116V29.391a1.924,1.924,0,0,1-1.918,1.918H.628c-.04,0-.077-.01-.116-.012a1.917,1.917,0,0,0,1.905,1.8H16.533a1.922,1.922,0,0,0,1.917-1.917V10.727a1.918,1.918,0,0,0-1.8-1.906" fill="#4589ff"/>
                </g>
              </g>
            </g>
            <path id="사각형_347487" data-name="사각형 347487" d="M1.918-.5H16.033a2.421,2.421,0,0,1,2.418,2.418V22.371a2.421,2.421,0,0,1-2.418,2.418H1.917A2.42,2.42,0,0,1-.5,22.372V1.918A2.421,2.421,0,0,1,1.918-.5ZM16.033,23.789a1.42,1.42,0,0,0,1.418-1.418V1.918A1.42,1.42,0,0,0,16.033.5H1.918A1.42,1.42,0,0,0,.5,1.918V22.372a1.419,1.419,0,0,0,1.417,1.417Z" transform="translate(0.5 8.81)" fill="#111"/>
            <path id="패스_40320" data-name="패스 40320" d="M14.736,18.979a5.263,5.263,0,1,1-5.263-5.265,5.264,5.264,0,0,1,5.263,5.265" fill="#34e6ea"/>
            <path id="타원_2638" data-name="타원 2638" d="M5.263-.5A5.763,5.763,0,1,1-.5,5.263,5.77,5.77,0,0,1,5.263-.5Zm0,10.526A4.763,4.763,0,1,0,.5,5.263,4.768,4.768,0,0,0,5.263,10.026Z" transform="translate(4.21 13.716)" fill="#111"/>
            <path id="타원_2639" data-name="타원 2639" d="M2.615-.5a2.742,2.742,0,0,1,2.3,1.82A9.077,9.077,0,0,1,5.73,5.265,9.077,9.077,0,0,1,4.912,9.21a2.742,2.742,0,0,1-2.3,1.82,2.742,2.742,0,0,1-2.3-1.82A9.077,9.077,0,0,1-.5,5.265,9.077,9.077,0,0,1,.318,1.32,2.742,2.742,0,0,1,2.615-.5Zm0,10.53c1,0,2.115-1.957,2.115-4.765S3.615.5,2.615.5.5,2.457.5,5.265,1.615,10.03,2.615,10.03Z" transform="translate(6.858 13.714)" fill="#111"/>
            <path id="선_641" data-name="선 641" d="M10.512.5H0v-1H10.512Z" transform="translate(4.228 18.979)" fill="#111"/>
            <path id="선_642" data-name="선 642" d="M7.9.5H0A.5.5,0,0,1-.5,0,.5.5,0,0,1,0-.5H7.9a.5.5,0,0,1,.5.5A.5.5,0,0,1,7.9.5Z" transform="translate(5.526 28.191)" fill="#111"/>
          </g>
        </g>
      </g>
    </g>
  </g>
</svg>
